<svg data-v-fde0c5aa="" xmlns="http://www.w3.org/2000/svg" viewBox="0 0 300 300" class="iconLeft"><!----><defs data-v-fde0c5aa=""><!----></defs><rect data-v-fde0c5aa="" fill="transparent" x="0" y="0" width="300px" height="300px" class="logo-background-square"></rect><defs data-v-fde0c5aa=""><!----></defs><g data-v-fde0c5aa="" id="385749fa-1288-4bd7-92e8-89c74f308f9c" fill="#000000" transform="matrix(1.376833344852957,0,0,1.376833344852957,105.75336289800101,141.84226249739876)"><path d="M7.36 10.50L6.58 8.55L3.43 8.55L2.65 10.50L0.11 10.50L3.35 1.34L6.68 1.34L10.09 10.50L7.36 10.50ZM3.93 6.83L5.98 6.83Q5.98 6.83 5.94 6.64Q5.89 6.45 5.82 6.15Q5.75 5.84 5.66 5.44Q5.56 5.04 5.45 4.64Q5.35 4.24 5.24 3.88Q5.12 3.51 5.03 3.25L5.03 3.25Q4.73 4.26 4.48 5.04L4.48 5.04Q4.37 5.38 4.27 5.70Q4.17 6.02 4.09 6.27Q4.02 6.52 3.98 6.68Q3.93 6.83 3.93 6.83L3.93 6.83ZM14.59 4.37L14.59 4.37Q15.26 4.37 15.83 4.58Q16.41 4.79 16.82 5.18Q17.23 5.57 17.47 6.14Q17.71 6.71 17.71 7.42L17.71 7.42Q17.71 8.12 17.42 8.71Q17.14 9.31 16.66 9.74Q16.18 10.18 15.55 10.42Q14.92 10.65 14.25 10.65L14.25 10.65Q13.31 10.65 12.52 10.40Q11.73 10.15 11.30 9.67L11.30 9.67L11.98 7.90Q12.35 8.33 12.83 8.55Q13.31 8.78 13.69 8.78L13.69 8.78Q14.35 8.78 14.69 8.55Q15.02 8.33 15.18 8.05L15.18 8.05Q15.34 7.73 15.34 7.32L15.34 7.32Q15.33 7.03 15.18 6.78L15.18 6.78Q15.05 6.57 14.78 6.39Q14.52 6.22 14.01 6.22L14.01 6.22Q13.59 6.22 13.38 6.33Q13.16 6.45 13.06 6.60Q12.96 6.75 12.95 6.87Q12.94 7 12.94 7L12.94 7L11.16 6.29L11.51 1.34L17.32 1.34L17.05 3.15L13.41 3.14Q13.41 3.57 13.40 3.91L13.40 3.91Q13.38 4.19 13.38 4.42Q13.37 4.66 13.38 4.66L13.38 4.66Q13.38 4.66 13.47 4.62Q13.57 4.58 13.73 4.52Q13.89 4.47 14.11 4.42Q14.34 4.37 14.59 4.37ZM21.87 6.76L21.87 8.65L26.03 8.65L26.03 10.50L19.28 10.50L19.25 1.34L25.89 1.34L25.59 3.21L21.87 3.21L21.87 4.90L25.73 4.90L25.73 6.76L21.87 6.76ZM34.27 6.94L35.43 10.50L32.80 10.50L31.84 7.60Q31.77 7.43 31.65 7.28L31.65 7.28Q31.56 7.15 31.41 7.05Q31.26 6.94 31.05 6.94L31.05 6.94L30.14 6.94L30.14 10.50L27.54 10.50L27.54 1.34L30.93 1.34Q31.64 1.34 32.37 1.39Q33.10 1.43 33.68 1.65Q34.27 1.88 34.64 2.35Q35.01 2.83 35.01 3.70L35.01 3.70Q35.01 4.27 34.87 4.66Q34.73 5.05 34.52 5.31Q34.31 5.56 34.06 5.70Q33.81 5.84 33.60 5.89Q33.39 5.95 33.25 5.96Q33.11 5.98 33.11 5.98L33.11 5.98Q33.45 5.98 33.67 6.13Q33.89 6.29 34.03 6.47Q34.16 6.65 34.22 6.80Q34.27 6.94 34.27 6.94L34.27 6.94ZM30.14 5.10L30.72 5.10Q31.02 5.10 31.32 5.09Q31.63 5.08 31.86 5.00Q32.10 4.91 32.25 4.72Q32.40 4.52 32.40 4.14L32.40 4.14Q32.40 3.77 32.27 3.57Q32.14 3.37 31.91 3.29Q31.68 3.21 31.37 3.20Q31.07 3.19 30.72 3.19L30.72 3.19L30.14 3.19L30.14 5.10ZM43.40 6.76L43.40 8.65L47.56 8.65L47.56 10.50L40.81 10.50L40.78 1.34L47.42 1.34L47.12 3.21L43.40 3.21L43.40 4.90L47.26 4.90L47.26 6.76L43.40 6.76ZM55.27 8.57L55.27 10.50L49.14 10.50L49.14 1.34L51.77 1.34L51.77 8.57L55.27 8.57ZM66.79 2.25L66.04 4.16Q65.45 3.75 64.85 3.50Q64.25 3.25 63.76 3.25L63.76 3.25Q63.31 3.25 63.10 3.35Q62.89 3.46 62.89 3.82L62.89 3.82Q62.89 4.23 63.25 4.44Q63.62 4.65 64.20 4.84L64.20 4.84Q64.69 5.01 65.20 5.21Q65.70 5.42 66.11 5.75Q66.51 6.08 66.77 6.58Q67.02 7.08 67.02 7.84L67.02 7.84Q67.02 8.57 66.74 9.10Q66.46 9.63 66.00 9.97Q65.53 10.32 64.94 10.49Q64.34 10.65 63.70 10.65L63.70 10.65Q62.79 10.65 61.88 10.27Q60.97 9.88 60.27 9.13L60.27 9.13L61.08 7.24Q61.73 7.90 62.39 8.26Q63.06 8.62 63.66 8.62L63.66 8.62Q64.16 8.62 64.48 8.50Q64.81 8.37 64.82 7.97L64.82 7.97Q64.82 7.73 64.72 7.57Q64.61 7.41 64.42 7.30Q64.23 7.20 63.97 7.11Q63.70 7.03 63.41 6.93L63.41 6.93Q62.92 6.76 62.43 6.55Q61.95 6.34 61.56 6.00Q61.17 5.66 60.93 5.16Q60.69 4.66 60.69 3.93L60.69 3.93Q60.69 3.21 60.96 2.69Q61.22 2.17 61.66 1.84Q62.09 1.51 62.66 1.36Q63.22 1.20 63.83 1.20L63.83 1.20Q64.60 1.20 65.37 1.48Q66.14 1.76 66.79 2.25L66.79 2.25ZM73.89 1.34L76.50 1.34L76.50 10.50L73.89 10.50L73.89 6.64L71.01 6.64L71.01 10.50L68.42 10.50L68.42 1.34L71.01 1.34L71.01 4.79L73.89 4.79L73.89 1.34ZM84.77 10.50L83.99 8.55L80.84 8.55L80.05 10.50L77.52 10.50L80.75 1.34L84.08 1.34L87.50 10.50L84.77 10.50ZM81.34 6.83L83.38 6.83Q83.38 6.83 83.34 6.64Q83.30 6.45 83.23 6.15Q83.16 5.84 83.06 5.44Q82.96 5.04 82.86 4.64Q82.75 4.24 82.64 3.88Q82.53 3.51 82.43 3.25L82.43 3.25Q82.14 4.26 81.89 5.04L81.89 5.04Q81.77 5.38 81.68 5.70Q81.58 6.02 81.50 6.27Q81.42 6.52 81.38 6.68Q81.34 6.83 81.34 6.83L81.34 6.83ZM95.19 6.94L96.35 10.50L93.72 10.50L92.75 7.60Q92.68 7.43 92.57 7.28L92.57 7.28Q92.47 7.15 92.32 7.05Q92.18 6.94 91.97 6.94L91.97 6.94L91.06 6.94L91.06 10.50L88.45 10.50L88.45 1.34L91.84 1.34Q92.55 1.34 93.28 1.39Q94.01 1.43 94.60 1.65Q95.19 1.88 95.56 2.35Q95.93 2.83 95.93 3.70L95.93 3.70Q95.93 4.27 95.79 4.66Q95.65 5.05 95.44 5.31Q95.23 5.56 94.98 5.70Q94.72 5.84 94.51 5.89Q94.30 5.95 94.16 5.96Q94.02 5.98 94.02 5.98L94.02 5.98Q94.36 5.98 94.58 6.13Q94.81 6.29 94.94 6.47Q95.07 6.65 95.13 6.80Q95.19 6.94 95.19 6.94L95.19 6.94ZM91.06 5.10L91.63 5.10Q91.94 5.10 92.24 5.09Q92.54 5.08 92.78 5.00Q93.02 4.91 93.16 4.72Q93.31 4.52 93.31 4.14L93.31 4.14Q93.31 3.77 93.18 3.57Q93.06 3.37 92.83 3.29Q92.60 3.21 92.29 3.20Q91.98 3.19 91.63 3.19L91.63 3.19L91.06 3.19L91.06 5.10ZM100.04 6.76L100.04 8.65L104.20 8.65L104.20 10.50L97.45 10.50L97.43 1.34L104.06 1.34L103.77 3.21L100.04 3.21L100.04 4.90L103.91 4.90L103.91 6.76L100.04 6.76ZM110.22 5.71L110.22 5.71Q110.21 5.71 110.49 5.80Q110.77 5.89 111.11 6.12Q111.45 6.34 111.74 6.72Q112.03 7.10 112.03 7.69L112.03 7.69Q112.03 8.54 111.66 9.11Q111.30 9.69 110.77 10.03Q110.24 10.37 109.64 10.51Q109.05 10.65 108.58 10.65L108.58 10.65Q107.70 10.65 107.11 10.45Q106.51 10.25 106.15 10.01Q105.78 9.77 105.62 9.56Q105.46 9.35 105.46 9.34L105.46 9.34L106.86 8.05Q106.95 8.25 107.18 8.40Q107.42 8.55 107.72 8.64Q108.02 8.72 108.35 8.72Q108.67 8.72 108.93 8.62Q109.20 8.51 109.38 8.29Q109.55 8.06 109.55 7.69L109.55 7.69Q109.55 7.52 109.48 7.34Q109.41 7.15 109.26 7.01Q109.10 6.87 108.84 6.78Q108.57 6.69 108.18 6.69L108.18 6.69L106.92 6.69L106.92 5.03L108.18 5.03Q108.40 5.03 108.63 4.98Q108.85 4.93 109.03 4.82Q109.20 4.72 109.31 4.54Q109.41 4.35 109.41 4.10L109.41 4.10Q109.41 3.79 109.24 3.60Q109.06 3.42 108.79 3.33Q108.53 3.25 108.21 3.24Q107.90 3.23 107.63 3.30Q107.35 3.37 107.16 3.49Q106.96 3.61 106.93 3.77L106.93 3.77L105.46 2.60Q105.94 2.04 106.60 1.71Q107.27 1.37 107.98 1.26Q108.70 1.15 109.40 1.25Q110.10 1.34 110.65 1.67Q111.20 1.99 111.55 2.53Q111.89 3.07 111.89 3.81L111.89 3.81Q111.87 4.38 111.61 4.75Q111.34 5.12 111.03 5.33Q110.73 5.54 110.47 5.63Q110.21 5.71 110.22 5.71Z"></path></g><defs data-v-fde0c5aa=""><linearGradient data-v-fde0c5aa="" gradientTransform="rotate(25)" id="48bf29df-2330-4d72-bc12-502635adfd1d" x1="0%" y1="0%" x2="100%" y2="0%"><stop data-v-fde0c5aa="" offset="0%" stop-color="#51A4FB" stop-opacity="1"></stop><stop data-v-fde0c5aa="" offset="100%" stop-color="#51A4FB" stop-opacity="1"></stop></linearGradient></defs><g data-v-fde0c5aa="" id="151df1e1-4cb4-470e-8ac1-17661e80b2fd" stroke="none" fill="url(#48bf29df-2330-4d72-bc12-502635adfd1d)" transform="matrix(0.5322072736503958,0,0,0.5322072736503958,39.84231907410668,122.17489489801203)"><path d="M15.524 55.357a7.631 7.631 0 000 15.261 7.631 7.631 0 000-15.261zm0 10.832a3.22 3.22 0 11.002-6.442 3.22 3.22 0 01-.002 6.442zM82.53 55.355a7.631 7.631 0 00-7.632 7.629 7.632 7.632 0 0015.262 0 7.632 7.632 0 00-7.63-7.629zm0 10.834a3.222 3.222 0 113.223-3.22 3.222 3.222 0 01-3.223 3.22z"></path><path d="M78.23 44.515s-18.764-8.75-24.754-10.018c-5.987-1.268-26.597-.115-28.554 1.151l-11.515 5.64-11.282 5.527-1.827 10.65s-.05 6.318.388 7.773h5.527l.071-2.25c0-5.103 4.138-9.24 9.243-9.24 5.103 0 9.238 4.138 9.238 9.24l.158 2.25h48.359l.007-2.83c0-5.103 3.856-8.87 8.959-8.87s9.523 3.768 9.523 8.87l.19 2.616s5.845.33 7.688-.361c0 0 .69-9.787-2.878-13.357-3.168-2.998-9.558-4.866-18.541-6.791zm-52.274 1.381s2.363-5.01 4.943-6.924c1.911-1.627 12.446-1.583 12.446-1.583l.389 9.715-17.778-1.208zm45.657 2.302l-24.698-.978-.577-9.846c9.154-.344 19.576 4.549 25.563 8.06 5.989 3.512-.288 2.764-.288 2.764z"></path></g><!----></svg>